<svg xmlns="http://www.w3.org/2000/svg" width="70" height="70" viewBox="0 0 70 70">
    <defs>
        <linearGradient id="a" x1="41.067%" x2="41.067%" y1="100%" y2="0%">
            <stop offset="0%" stop-color="#A254C1"/>
            <stop offset="100%" stop-color="#677EFB"/>
        </linearGradient>
        <linearGradient id="b" x1="69.545%" x2="69.545%" y1="96.552%" y2="0%">
            <stop offset="0%" stop-color="#A056C4"/>
            <stop offset="100%" stop-color="#6A7DF9"/>
        </linearGradient>
    </defs>
    <g fill="none" fill-rule="evenodd">
        <circle cx="35" cy="35" r="35" fill="url(#a)"/>
        <circle cx="35" cy="35" r="31" fill="#FFF"/>
        <path stroke="url(#b)" stroke-linecap="round" stroke-linejoin="round" stroke-width="2" d="M17.749 40.898l-3.67 6.358L10 40.192l4.078-7.064 4.079-7.064L22.235 19h8.157l4.078 7.064h-8.157l-4.078 7.064-4.078 7.064-.408.706.408-.706 4.078-7.064 4.078-7.064h8.157l-4.078 7.064-4.079 7.064-4.078 7.064h-8.157l3.67-6.358zM46.705 19l4.078 7.064h-8.156L46.705 19zm8.157 14.128l4.078 7.064-4.078 7.064-4.079-7.064-4.078-7.064 4.078-7.064 4.079 7.064zm-16.314 0l4.079 7.064-4.079 7.064-4.078-7.064 4.078-7.064zm-4.078 7.064l4.078 7.064h-8.156l-4.079-7.064h8.157zm16.313 0l4.079 7.064h-8.157l-4.078-7.064-4.079-7.064h8.157l4.078 7.064zm-8.156-14.128h8.156l-4.078 7.064h-8.157l-4.078 7.064h-8.157l4.079-7.064 4.078-7.064L38.548 19h8.157l-4.078 7.064z"/>
    </g>
</svg>
