<svg xmlns="http://www.w3.org/2000/svg" width="114" height="100" viewBox="0 0 114 100">
    <g fill="none" fill-rule="evenodd">
        <path fill="#E8821E" d="M88.826 53.913l.126-.112-.089.165.089.128h-.157L78.55 73.208l.193-.109 1.928 17.118 10.613-16.24 21.873 1.17L106.45 100l-25.675-8.867.01.095-.31-.198-.273-.094.037-.057-15.494-9.885 13.707-7.73V63.158l10.171-9.064H64.501l1.994 12.28-3.791 13.743 1.75-26.316.014.09 1.735-23.774 16.04 14.327 6.583 9.47zM72.328 14.035L106.158.293 66.203 30.117l6.125-16.082zM48.657 54.094H24.535l10.17 9.064v10.106l13.708 7.73L32.92 90.88l.037.057-.273.094-.31.198.01-.095L6.708 100 0 75.146l21.873-1.17 10.613 16.241L34.414 73.1l.193.11-10.244-19.115h-.157l.089-.128-.089-.165.126.112 6.582-9.469 16.04-14.327 1.736 23.775.015-.09 1.75 26.315-3.792-13.743 1.994-12.28zM40.83 14.035l6.125 16.082L6.999.293 40.83 14.035z"/>
        <path fill="#D46C17" d="M69.995 59.649s-3.396 6.642-3.5 7.018c-.104.375-2.042-12.573-2.042-12.573l24.79-.293-10.79 9.65-8.458-3.802zm-23.332 7.018c-.105-.376-3.5-7.018-3.5-7.018l-8.457 3.802-10.791-9.65 24.79.293s-1.938 12.948-2.042 12.573zm-13.999 24.56l-11.082-17.25 13.124-.878-2.042 18.129zm47.83 0L78.452 73.1l13.124.878-11.082 17.25z"/>
        <path fill="#C8B6A9" d="M75.827 95.322l-10.499 4.385H47.83l-10.498-4.385-4.667-4.094 14.29 4.094.292-4.679s.252-1.17 1.167-1.17h16.332c.914 0 1.167 1.17 1.167 1.17l.291 4.679 14.29-4.094-4.666 4.094z"/>
        <path fill="#DCC8BC" d="M66.203 95.614l-1.458-14.912 16.04 10.526-14.582 4.386zm-33.83-4.386l16.04-10.526-1.458 14.912-14.582-4.386z"/>
        <path fill="#814718" d="M109.075 33.918l2.333 1.462-3.791 2.632 3.208 2.046-4.083 3.217 2.624 1.462-4.666 6.14-22.456-6.14-16.332-14.62L106.158 0l6.417 16.082-3.5 17.836zM8.458 50.878l-4.666-6.141 2.624-1.462-4.083-3.217 3.208-2.046L1.75 35.38l2.333-1.462-3.5-17.836L7 0l40.247 30.117-16.332 14.62-22.456 6.14z"/>
        <path fill="#F8921E" d="M78.425 73.407l-13.388 7.587-2.333-1.462h-12.25l-2.333 1.462-13.388-7.587L0 75.438l8.458-24.853 22.748-6.14-6.708 9.356 10.208 19.046v-9.396l12.249 3.216 3.105 11.416-3.397-47.966-6.125-16.374H72.62l-6.124 16.374-3.397 47.966 3.105-11.416 12.25-3.216v9.396L88.66 53.801l-6.708-9.357 22.748 6.14 8.458 24.854z"/>
        <path fill="#181818" d="M64.745 89.474H48.413s-.99.12-1.167.877c.452-3.736.897-8.151 1.167-9.357.27-1.206 1.335-1.462 2.625-1.462H62.12c1.29 0 2.354.256 2.625 1.462.27 1.206.715 5.621 1.167 9.357-.176-.756-1.167-.877-1.167-.877z"/>
    </g>
</svg>
