<svg xmlns="http://www.w3.org/2000/svg" width="99" height="99" viewBox="0 0 99 99">
    <g fill="none" fill-rule="evenodd">
        <path fill="#007CB2" d="M67.733 0H30.77C13.846 0-.001 13.846-.001 30.77v36.963c0 16.923 13.847 30.77 30.77 30.77h36.964c16.923 0 30.77-13.847 30.77-30.77V30.77C98.502 13.846 84.655 0 67.732 0"/>
        <path stroke="#FFF" stroke-width="4" d="M48.236 21.49c-5.313 4.822-15.793 5.804-20.462 6a2.304 2.304 0 0 0-2.21 2.445c.351 6.07 1.384 22.054 2.84 29.336 1.562 7.81 16.298 15.985 20.421 18.136.67.349 1.464.349 2.134 0 4.125-2.151 18.859-10.325 20.42-18.136 1.46-7.282 2.49-23.266 2.844-29.336a2.305 2.305 0 0 0-2.21-2.446c-4.672-.195-15.15-1.177-20.465-6-.959-.872-2.35-.872-3.312 0z"/>
    </g>
</svg>
