<svg height="190" width="189" xmlns="http://www.w3.org/2000/svg" xmlns:xlink="http://www.w3.org/1999/xlink"><linearGradient id="a" x1=".971858" x2="-.000376" y1=".031053" y2=".996959"><stop offset="0" stop-color="#11c4d1"/><stop offset="1" stop-color="#0062ad"/></linearGradient><rect fill="none" height="100%" width="100%"/><path d="m188.90076542 129.80077872s0 19.8-2.1 28.3c-2.1 8.6-6.1 14.5-10.4 18.9-4.4 4.4-10.2 8.4-19 10.5-8.9 2.1-28.1 2-28.1 2h-69.8s-19.7 0-28.2-2.1c-8.5-2.2-14.5-6.1-18.9-10.5s-8.4-10.2-10.4-19.1c-2.1-8.9-2-28.1-2-28.1v-70s0-19.8 2.1-28.3c2.1-8.6 6.1-14.5 10.4-18.9 4.4-4.4 10.2-8.4 19-10.5 8.9-2.1 28.1-2 28.1-2h69.8s19.7 0 28.2 2.1c8.5 2.2 14.5 6.1 18.9 10.5s8.4 10.2 10.4 19.1 2 28.1 2 28.1z" fill="url(#a)"/><path d="m159.30076542 57.90077872c3.9 53.9-31.9 79.5-64 82.3-29.8 2.6-57.8-15-60.2-42.3-2-22.5 12.4-32.2 23.7-33.1 11.6-1 21.3 6.7 22.2 16.1.8 9-5 13.2-9.1 13.5-3.2.3-7.2-1.6-7.6-5.6-.3-3.5 1.1-3.9.7-7.6-.6-6.6-6.5-7.3-9.7-7-3.9.3-11 4.8-10.1 15.8 1 11.1 12 19.9 26.4 18.6 15.6-1.4 26.5-13.1 27.3-29.6 0-.9.2-1.7.6-2.5.2-.3.3-.6.6-.9.4-.6.8-1.1 1.3-1.6l1.4-1.4c6.8-6.2 31.4-21 54.5-16.4.2 0 .4.1.5.2.9 0 1.4.7 1.5 1.5" fill="#fff"/></svg>