<svg xmlns="http://www.w3.org/2000/svg" width="103" height="30" viewBox="0 0 103 30">
    <g fill="none" fill-rule="evenodd">
        <path fill="#131228" d="M30.215.095L25.899 7.57 21.58.095H12.95L8.633 7.57l-4.317 7.476L0 22.524 4.316 30h8.633l4.317-7.476L21.581 30h8.635l4.315-7.477L38.848 30h8.632l4.317-7.477-4.317-7.476-4.315-7.476L38.848.095h-8.633z"/>
        <path fill="#232A60" d="M34.53 7.571h8.635L38.848.095zM47.48 15.047l-4.315-7.476-4.317 7.476h-8.632l-4.318 7.476h-8.632L21.581 30h8.635l4.315-7.477L38.848 30h8.632l4.317-7.477zM25.898 7.571L21.582.095h-8.633l4.317 7.476-4.317 7.476-4.317 7.476L4.317 30h8.632l4.317-7.477 4.316-7.476z"/>
        <path fill="#5354D6" d="M34.531 7.571L38.848.095h-8.633L25.898 7.57l-4.316 7.476-4.316 7.477h8.632l4.317-7.477h8.633l4.316-7.476zM8.633 7.57l-4.316 7.477L0 22.524 4.317 30l4.316-7.476 4.316-7.477 4.317-7.476L12.949.095z"/>
        <path fill="#666EDE" d="M67.043 2.231V12.61h-1.231V4.983c0-.101.003-.21.01-.326.008-.116.016-.234.026-.355l-3.563 6.489c-.111.217-.28.326-.507.326h-.203c-.227 0-.396-.109-.507-.326l-3.635-6.518c.029.256.043.493.043.71v7.626h-1.23V2.23h1.035a.9.9 0 0 1 .29.036c.067.025.132.092.195.203l3.585 6.387a8.48 8.48 0 0 1 .325.746c.049-.13.1-.26.153-.387.053-.128.11-.25.173-.366l3.52-6.38c.058-.11.122-.178.192-.203a.936.936 0 0 1 .293-.036h1.036zm8.302 9.262c.43 0 .814-.072 1.152-.217.338-.145.624-.347.858-.608a2.66 2.66 0 0 0 .536-.934c.123-.362.185-.76.185-1.195V2.23h1.397V8.54c0 .598-.095 1.154-.286 1.665a3.87 3.87 0 0 1-.818 1.33 3.742 3.742 0 0 1-1.3.88c-.512.212-1.086.318-1.724.318-.637 0-1.211-.106-1.723-.319a3.78 3.78 0 0 1-1.304-.88 3.842 3.842 0 0 1-.822-1.329 4.733 4.733 0 0 1-.286-1.665V2.23h1.398v6.3c0 .435.062.833.185 1.195.123.363.301.674.536.935.234.26.52.464.861.612.34.147.726.22 1.155.22zm14.183-.065v1.18h-5.887V2.232h1.398v9.197h4.49zm9.078-8.016h-3.36v9.197h-1.398V3.412h-3.367v-1.18h8.125v1.18zm3.255 9.197h-1.405V2.23h1.405V12.61z"/>
        <path fill="#2E3B73" d="M63.262 19.43h-3.36v9.197h-1.397V19.43h-3.368v-1.18h8.125v1.18zm10.25 4.012a5.99 5.99 0 0 1-.37 2.14 4.9 4.9 0 0 1-1.042 1.676 4.66 4.66 0 0 1-1.619 1.09 5.458 5.458 0 0 1-2.09.388c-.762 0-1.457-.13-2.085-.388a4.668 4.668 0 0 1-1.615-1.09 4.9 4.9 0 0 1-1.042-1.676 5.99 5.99 0 0 1-.37-2.14c0-.777.123-1.49.37-2.14a4.94 4.94 0 0 1 1.042-1.68c.45-.47.988-.837 1.615-1.097.628-.26 1.323-.391 2.086-.391.763 0 1.46.13 2.09.39.63.261 1.169.627 1.618 1.098a4.94 4.94 0 0 1 1.042 1.68c.247.65.37 1.363.37 2.14zm-1.441 0c0-.637-.087-1.21-.261-1.716a3.63 3.63 0 0 0-.739-1.286 3.205 3.205 0 0 0-1.158-.807 3.933 3.933 0 0 0-1.521-.283c-.555 0-1.06.094-1.514.283a3.24 3.24 0 0 0-1.162.807 3.6 3.6 0 0 0-.742 1.286 5.274 5.274 0 0 0-.26 1.716c0 .637.086 1.208.26 1.713.174.504.421.931.742 1.281.321.35.709.618 1.162.804.454.186.959.279 1.514.279.56 0 1.067-.093 1.52-.279.454-.186.84-.454 1.16-.804.318-.35.564-.777.738-1.281.174-.505.26-1.076.26-1.713zm4.89-.645h.529c.183 0 .33-.023.442-.068a.788.788 0 0 0 .304-.236l3.454-3.91a.83.83 0 0 1 .304-.261.943.943 0 0 1 .391-.072h1.188l-3.954 4.468c-.097.116-.19.211-.279.286-.09.075-.185.136-.286.184.13.044.249.108.355.192.106.085.21.195.311.33l4.128 4.917h-1.217c-.091 0-.17-.006-.235-.018a.565.565 0 0 1-.297-.152.945.945 0 0 1-.105-.127l-3.577-4.12a.869.869 0 0 0-.312-.258c-.11-.05-.28-.076-.507-.076h-.637v4.751h-1.397V18.25h1.397v4.547zm14.645 4.686l-.007 1.144h-6.394V18.25h6.394v1.144h-4.99v3.447h4.041v1.1h-4.04v3.542h4.996zm10.416-9.233v10.377h-.702a.604.604 0 0 1-.279-.058.704.704 0 0 1-.22-.195l-6.004-7.822a9.312 9.312 0 0 1 .029.681v7.394h-1.231V18.25h.724a.99.99 0 0 1 .16.01.408.408 0 0 1 .216.11c.034.03.07.07.109.119l6.003 7.813c-.01-.125-.018-.247-.025-.365a5.522 5.522 0 0 1-.01-.337v-7.35h1.23z"/>
    </g>
</svg>
