<svg xmlns="http://www.w3.org/2000/svg" width="30" height="30" viewBox="0 0 30 30">
    <path fill="#5F89FF" fill-rule="evenodd" d="M7.806 25.797v-.252a5.114 5.114 0 0 1 5.109-5.11h4.17a5.114 5.114 0 0 1 5.109 5.11v.253A12.904 12.904 0 0 1 15 27.98c-2.66 0-5.134-.805-7.194-2.183zM10.068 7.7a2.659 2.659 0 0 1 2.455-1.645h6.222A7.75 7.75 0 0 1 13.98 7.7h-3.91zM2.02 15C2.02 7.843 7.843 2.02 15 2.02S27.98 7.843 27.98 15c0 3.618-1.49 6.894-3.886 9.25-.611-3.314-3.52-5.834-7.01-5.834h-.331c3.075-.791 5.355-3.587 5.355-6.906v-2.8a1.01 1.01 0 0 0-2.02 0v2.8a5.115 5.115 0 0 1-5.11 5.11 5.115 5.115 0 0 1-5.11-5.11V9.72h4.111a9.776 9.776 0 0 0 7.94-4.088 1.01 1.01 0 0 0-.821-1.597h-8.575A4.68 4.68 0 0 0 7.848 8.71v2.8c0 3.319 2.28 6.115 5.355 6.906h-.288c-3.489 0-6.398 2.52-7.01 5.834A12.939 12.939 0 0 1 2.02 15zM30 15c0-8.271-6.729-15-15-15S0 6.729 0 15c0 4.963 2.424 9.368 6.15 12.1.042.036.087.069.136.097A14.913 14.913 0 0 0 15 30c3.249 0 6.258-1.042 8.716-2.804a.977.977 0 0 0 .13-.092C27.573 24.372 30 19.965 30 15z"/>
</svg>
