<svg xmlns="http://www.w3.org/2000/svg" width="42" height="42" viewBox="0 0 42 42">
    <g fill="none" fill-rule="evenodd" transform="translate(1 1)">
        <circle cx="20" cy="20" r="20" stroke="#5354D6"/>
        <path fill="#5354D6" d="M32.743 12.359a10.09 10.09 0 0 1-2.889.79 5.029 5.029 0 0 0 2.21-2.783c-.973.577-2.049.994-3.193 1.221a5.03 5.03 0 0 0-8.568 4.586 14.267 14.267 0 0 1-10.364-5.255 5.013 5.013 0 0 0-.68 2.527 5.02 5.02 0 0 0 2.238 4.183A5.019 5.019 0 0 1 9.218 17v.063a5.03 5.03 0 0 0 4.034 4.93 5.047 5.047 0 0 1-2.271.084 5.035 5.035 0 0 0 4.696 3.492 10.086 10.086 0 0 1-6.247 2.154c-.405 0-.804-.026-1.199-.07a14.23 14.23 0 0 0 7.709 2.26c9.248 0 14.306-7.661 14.306-14.306 0-.22-.004-.435-.015-.65a10.169 10.169 0 0 0 2.509-2.605l.003.008z"/>
    </g>
</svg>
