<svg xmlns="http://www.w3.org/2000/svg" width="42" height="42" viewBox="0 0 42 42">
    <g fill="none" fill-rule="evenodd" transform="translate(1 1)">
        <circle cx="20" cy="20" r="20" stroke="#5354D6"/>
        <path fill="#5354D6" d="M16.061 22.598l-.443 3.281-1.507-5.187 11.54-7.358c.179-.114.367.131.21.275l-9.8 8.99zm-8.4-2.953l5.297 1.845 1.995 6.059a.823.823 0 0 0 1.339.348l2.917-2.683 5.323 3.74a1.34 1.34 0 0 0 2.084-.835L29.98 11.23a1.028 1.028 0 0 0-1.363-1.166L7.644 17.79c-.867.32-.856 1.55.017 1.854z"/>
    </g>
</svg>
